<svg width="70" height="64" viewBox="0 0 70 64" fill="none" xmlns="http://www.w3.org/2000/svg">
<mask id="path-1-outside-1_328_162" maskUnits="userSpaceOnUse" x="-1.21041" y="1.79793" width="60.2681" height="63.1936" fill="black">
<rect fill="white" x="-1.21041" y="1.79793" width="60.2681" height="63.1936"/>
<path d="M24.443 8.2356C32.5247 6.24186 40.6574 8.39731 46.5986 13.3443L44.5267 14.9065C39.2242 10.7192 32.1138 8.93645 25.046 10.6799C12.8965 13.6772 5.4762 25.9563 8.47337 38.1058C11.4708 50.2552 23.7506 57.6745 35.9 54.6772C42.9679 52.9335 48.433 48.0476 51.1796 41.8744L53.7404 42.2937C50.7818 49.4367 44.5851 55.1277 36.503 57.1215C23.0036 60.4516 9.36031 52.208 6.03002 38.7086C2.69982 25.2092 10.9437 11.566 24.443 8.2356Z"/>
</mask>
<path d="M24.443 8.2356C32.5247 6.24186 40.6574 8.39731 46.5986 13.3443L44.5267 14.9065C39.2242 10.7192 32.1138 8.93645 25.046 10.6799C12.8965 13.6772 5.4762 25.9563 8.47337 38.1058C11.4708 50.2552 23.7506 57.6745 35.9 54.6772C42.9679 52.9335 48.433 48.0476 51.1796 41.8744L53.7404 42.2937C50.7818 49.4367 44.5851 55.1277 36.503 57.1215C23.0036 60.4516 9.36031 52.208 6.03002 38.7086C2.69982 25.2092 10.9437 11.566 24.443 8.2356Z" fill="#581C87"/>
<path d="M24.443 8.2356L24.2035 7.26471L24.2034 7.26472L24.443 8.2356ZM46.5986 13.3443L47.2006 14.1427L48.2081 13.3831L47.2385 12.5758L46.5986 13.3443ZM44.5267 14.9065L43.907 15.6913L44.5126 16.1696L45.1288 15.705L44.5267 14.9065ZM25.046 10.6799L24.8065 9.709L24.8065 9.70901L25.046 10.6799ZM8.47337 38.1058L7.50248 38.3453L7.50248 38.3454L8.47337 38.1058ZM35.9 54.6772L36.1395 55.6481L36.1395 55.6481L35.9 54.6772ZM51.1796 41.8744L51.3412 40.8875L50.5797 40.7628L50.266 41.4679L51.1796 41.8744ZM53.7404 42.2937L54.6642 42.6764L55.147 41.5108L53.902 41.3069L53.7404 42.2937ZM36.503 57.1215L36.7425 58.0924L36.7425 58.0924L36.503 57.1215ZM6.03002 38.7086L5.05913 38.9481L5.05913 38.9481L6.03002 38.7086ZM24.443 8.2356L24.6825 9.2065C32.4424 7.29213 40.2512 9.36037 45.9587 14.1127L46.5986 13.3443L47.2385 12.5758C41.0636 7.43424 32.607 5.19158 24.2035 7.26471L24.443 8.2356ZM46.5986 13.3443L45.9965 12.5458L43.9247 14.108L44.5267 14.9065L45.1288 15.705L47.2006 14.1427L46.5986 13.3443ZM44.5267 14.9065L45.1465 14.1217C39.6122 9.75135 32.1869 7.88844 24.8065 9.709L25.046 10.6799L25.2855 11.6508C32.0407 9.98446 38.8362 11.687 43.907 15.6913L44.5267 14.9065ZM25.046 10.6799L24.8065 9.70901C12.1208 12.8385 4.37301 25.6596 7.50248 38.3453L8.47337 38.1058L9.44426 37.8663C6.57938 26.2531 13.6721 14.5158 25.2855 11.6508L25.046 10.6799ZM8.47337 38.1058L7.50248 38.3454C10.6322 51.0309 23.4539 58.7776 36.1395 55.6481L35.9 54.6772L35.6605 53.7064C24.0472 56.5713 12.3094 49.4794 9.44426 37.8663L8.47337 38.1058ZM35.9 54.6772L36.1395 55.6481C43.5201 53.8272 49.2266 48.7238 52.0933 42.2809L51.1796 41.8744L50.266 41.4679C47.6394 47.3713 42.4157 52.0397 35.6605 53.7064L35.9 54.6772ZM51.1796 41.8744L51.018 42.8612L53.5787 43.2806L53.7404 42.2937L53.902 41.3069L51.3412 40.8875L51.1796 41.8744ZM53.7404 42.2937L52.8165 41.9111C49.9742 48.7731 44.0237 54.2362 36.2635 56.1507L36.503 57.1215L36.7425 58.0924C45.1464 56.0192 51.5893 50.1003 54.6642 42.6764L53.7404 42.2937ZM36.503 57.1215L36.2635 56.1507C23.3003 59.3485 10.1989 51.4322 7.00091 38.4691L6.03002 38.7086L5.05913 38.9481C8.5217 52.9837 22.7069 61.5548 36.7425 58.0924L36.503 57.1215ZM6.03002 38.7086L7.00091 38.4691C3.803 25.5059 11.7194 12.4046 24.6825 9.20649L24.443 8.2356L24.2034 7.26472C10.168 10.7274 1.59665 24.9125 5.05913 38.9481L6.03002 38.7086Z" fill="#581C87" mask="url(#path-1-outside-1_328_162)"/>
<path d="M47.9971 11.8643C50.7173 9.88202 54.6488 11.2663 55.4717 14.6016L61.0098 37.0527L61.0781 37.375C61.6491 40.5821 58.8889 43.4273 55.666 42.9531L55.3428 42.8945L29.5459 37.3496C25.636 36.5092 24.4091 31.535 27.4795 28.9727L47.7373 12.0664L47.9971 11.8643ZM53.3955 17.5293C52.7402 14.8735 49.5995 13.7848 47.4492 15.3838L47.2441 15.5469L31.5479 28.9121C29.1641 30.9419 30.1207 34.8223 33.1748 35.5107L53.2871 40.042L53.5439 40.0908C56.106 40.4931 58.3183 38.2351 57.8643 35.6816L57.8105 35.4258L53.3955 17.5293Z" fill="#581C87" stroke="#581C87"/>
</svg>
